<svg id="Layer_1" data-name="Layer 1" xmlns="http://www.w3.org/2000/svg" viewBox="0 0 841.89 595.28"><defs><style>.cls-1{fill:#231f20;}</style></defs><path class="cls-1" d="M74.8,392.33A45.29,45.29,0,0,1,29.52,347V287.61h90.56V347A45.34,45.34,0,0,1,74.8,392.33ZM43.51,301.59V347a31.3,31.3,0,1,0,62.59,0V301.59Z"/><path class="cls-1" d="M225,301.59H134.41V242.16a45.28,45.28,0,1,1,90.55,0Zm-76.56-14H211V242.16a31.29,31.29,0,1,0-62.58,0Z"/><path class="cls-1" d="M66.76,279.64A37.24,37.24,0,1,1,104,242.4,37.29,37.29,0,0,1,66.76,279.64Zm0-60.49A23.25,23.25,0,1,0,90,242.4,23.28,23.28,0,0,0,66.76,219.15Z"/><path class="cls-1" d="M187.73,384A37.24,37.24,0,1,1,225,346.8,37.29,37.29,0,0,1,187.73,384Zm0-60.49A23.25,23.25,0,1,0,211,346.8,23.28,23.28,0,0,0,187.73,323.55Z"/><rect class="cls-1" x="134.41" y="294.6" width="13.98" height="90.73"/><rect class="cls-1" x="106.1" y="203.87" width="13.98" height="90.73"/><path class="cls-1" d="M351,253.41v18.21q-18.56-8.34-29.55-8.34-6.29,0-10,2.11c-2.47,1.4-3.7,3.25-3.7,5.57a6.86,6.86,0,0,0,2.67,5.07q2.67,2.4,13,6.2A142.19,142.19,0,0,1,340,289.3a32.16,32.16,0,0,1,10.71,9.21q4.5,5.94,4.5,15,0,12.94-9.84,20.61t-25.92,7.67a68.62,68.62,0,0,1-33.62-9V312.72a91.68,91.68,0,0,0,16.55,9.14,40.91,40.91,0,0,0,15.27,2.86q13.68,0,13.68-8.6a7.6,7.6,0,0,0-2.74-5.53q-2.73-2.59-13.18-6.33a133.13,133.13,0,0,1-16.54-6.94,31.13,31.13,0,0,1-10.54-9.14q-4.43-5.94-4.43-15.22a23.22,23.22,0,0,1,9.67-19.38q9.68-7.38,25.88-7.37Q334.4,246.21,351,253.41Z"/><path class="cls-1" d="M419.71,246.21q23.82,0,38.56,14.37T473,294q0,19.35-14.94,33.55T419.71,341.8q-23.68,0-38.56-14.14T366.27,294q0-19.16,14.78-33.49T419.71,246.21Zm0,76.25q13.21,0,21.28-7.84T449.06,294q0-12.81-8.07-20.62t-21.28-7.8q-13.27,0-21.38,7.8T390.22,294q0,12.73,8.11,20.58T419.71,322.46Z"/><path class="cls-1" d="M573.94,312.18v20.35a77.11,77.11,0,0,1-36.62,9.27q-24.81,0-39.52-13.71a44.35,44.35,0,0,1-14.71-33.79q0-20.07,15.51-34.08t40.52-14q19.95,0,33.76,8.2v20.75q-16.95-9.54-32.09-9.54-14.88,0-24.32,8A25.44,25.44,0,0,0,507,293.9a25.93,25.93,0,0,0,9.31,20.48q9.3,8.08,23.85,8.08a50.72,50.72,0,0,0,13.88-1.9Q560.73,318.66,573.94,312.18Z"/><path class="cls-1" d="M613.7,247.41V340.6H590.49V247.41Z"/><path class="cls-1" d="M704.3,247.41h23.21v52.9q0,20.42-12.07,30.95T681,341.8q-22.16,0-34.39-10.67t-12.24-30.69v-53H657.6V301q0,9.74,6.37,15.61t16.71,5.87q10.74,0,17.18-6t6.44-17.08Z"/><path class="cls-1" d="M808.17,253.41v18.21q-18.55-8.34-29.56-8.34-6.27,0-10,2.11c-2.47,1.4-3.7,3.25-3.7,5.57a6.86,6.86,0,0,0,2.67,5.07q2.65,2.4,13,6.2a141.7,141.7,0,0,1,16.55,7.07,32.36,32.36,0,0,1,10.71,9.21q4.5,5.94,4.5,15,0,12.94-9.84,20.61t-25.92,7.67a68.62,68.62,0,0,1-33.62-9V312.72a92,92,0,0,0,16.54,9.14,41,41,0,0,0,15.28,2.86q13.68,0,13.68-8.6a7.63,7.63,0,0,0-2.74-5.53Q783,308,772.57,304.26A133.13,133.13,0,0,1,756,297.32a31.13,31.13,0,0,1-10.54-9.14q-4.44-5.94-4.43-15.22a23.22,23.22,0,0,1,9.67-19.38q9.67-7.38,25.88-7.37Q791.55,246.21,808.17,253.41Z"/></svg>